<?xml version="1.0" encoding="UTF-8" standalone="no"?>
<!DOCTYPE svg PUBLIC "-//W3C//DTD SVG 1.1//EN" "http://www.w3.org/Graphics/SVG/1.1/DTD/svg11.dtd">
<svg width="100%" height="100%" viewBox="0 0 2324 1027" version="1.1" xmlns="http://www.w3.org/2000/svg" xmlns:xlink="http://www.w3.org/1999/xlink" xml:space="preserve" xmlns:serif="http://www.serif.com/" style="fill-rule:evenodd;clip-rule:evenodd;stroke-linejoin:round;stroke-miterlimit:2;">
    <g transform="matrix(1,0,0,1,-1079,-2)">
        <g id="Horizontal-Logo" serif:id="Horizontal Logo" transform="matrix(1.210417,0,0,0.950926,-1462.875,2)">
            <rect x="2100" y="0" width="1920" height="1080" style="fill:none;"/>
            <g transform="matrix(0.163029,0,0,0.207517,2502.729479,517.712703)">
                <g transform="matrix(1,0,0,1,-2250,-2250)">
                    <g transform="matrix(5.555556,0,0,5.555556,0,0.000019)">
                        <clipPath id="_clip1">
                            <rect x="0" y="506" width="810" height="284.406"/>
                        </clipPath>
                        <g clip-path="url(#_clip1)">
                            <path d="M641.348,570.125C389.531,482.574 206.664,488.012 81,570.594C30.441,578.578 0,592.277 0,592.277L0,790.426L810,790.426L810,687.555C810,687.555 761.754,605.918 641.348,570.125Z" style="fill:rgb(152,196,235);fill-rule:nonzero;"/>
                        </g>
                    </g>
                    <g transform="matrix(5.555556,0,0,5.555556,0,0.000019)">
                        <path d="M151.066,623.852C201.891,623.852 243.102,652.371 243.102,687.555C243.102,722.758 201.891,751.273 151.066,751.273C100.238,751.273 59.027,722.758 59.027,687.555C59.027,652.371 100.238,623.852 151.066,623.852Z" style="fill:rgb(204,233,255);fill-rule:nonzero;"/>
                    </g>
                    <g transform="matrix(5.555556,0,0,5.555556,0,0.000019)">
                        <path d="M550.211,295.141C450.734,374.215 340.367,392.148 339.469,392.234C332.055,392.934 326.609,399.504 327.297,406.922C327.945,413.922 333.828,419.176 340.723,419.176C341.141,419.176 341.562,419.156 341.984,419.117C345.961,418.75 460.832,400.684 567.016,316.277C572.852,311.637 573.82,303.145 569.184,297.309C564.543,291.469 556.047,290.5 550.211,295.141Z" style="fill:rgb(14,101,0);fill-rule:nonzero;"/>
                    </g>
                    <g transform="matrix(5.555556,0,0,5.555556,0,0.000019)">
                        <path d="M666.371,559.98C666.059,559.203 638.645,474.059 657.934,360.5C659.184,353.148 654.238,346.176 646.887,344.93C639.555,343.68 632.566,348.625 631.316,355.977C610.66,477.57 639.945,566.676 641.348,570.125C643.477,575.363 648.52,578.535 653.848,578.535C655.531,578.535 657.25,578.219 658.91,577.547C665.816,574.754 669.148,566.891 666.371,559.98Z" style="fill:rgb(14,101,0);fill-rule:nonzero;"/>
                    </g>
                    <g transform="matrix(5.555556,0,0,5.555556,0,0.000019)">
                        <path d="M810,557.668L810,687.555C648.406,687.555 549.703,662.379 429.301,626.586L429.57,625.676C429.57,625.676 463.793,607.246 528.305,589.527C560.555,580.668 600.363,571.996 647.273,565.887C649.453,565.598 651.645,565.312 653.855,565.059C699.535,559.406 751.73,556.234 810,557.668Z" style="fill:rgb(114,173,220);fill-rule:nonzero;"/>
                    </g>
                    <g transform="matrix(5.555556,0,0,5.555556,0,0.000019)">
                        <path d="M666.898,178.875C671.551,208.344 659.574,222.484 635.832,225.789L576.145,188.898C562.934,180.73 558.848,163.402 567.016,150.188C572.332,141.582 581.547,136.855 590.961,136.855C596.008,136.855 601.121,138.207 605.727,141.059L666.898,178.875Z" style="fill:rgb(14,101,0);fill-rule:nonzero;"/>
                    </g>
                    <g transform="matrix(5.555556,0,0,5.555556,0,0.000019)">
                        <path d="M782.156,250.137C795.371,258.305 799.453,275.637 791.285,288.848C785.969,297.438 776.758,302.18 767.34,302.18C762.293,302.18 757.199,300.832 752.59,297.98L688.094,258.102C678.977,234.488 696.336,221.664 718.52,210.801L782.156,250.137Z" style="fill:rgb(14,101,0);fill-rule:nonzero;"/>
                    </g>
                    <g transform="matrix(5.555556,0,0,5.555556,0,0.000019)">
                        <path d="M603.078,275.281C604.723,305.152 593.41,319.645 572.027,322.195L553.551,310.77L515.379,287.18C502.184,279.012 498.082,261.68 506.25,248.469C511.566,239.879 520.781,235.137 530.211,235.137C535.242,235.137 540.355,236.504 544.961,239.34L603.078,275.281Z" style="fill:rgb(14,101,0);fill-rule:nonzero;"/>
                    </g>
                    <g transform="matrix(5.555556,0,0,5.555556,0,0.000019)">
                        <path d="M721.391,348.434C734.602,356.586 738.688,373.918 730.52,387.129C725.203,395.734 715.988,400.461 706.574,400.461C701.527,400.461 696.43,399.109 691.824,396.258L641.25,364.988L625.574,355.305C615.652,328.703 629.621,315 656,308.004L721.391,348.434Z" style="fill:rgb(14,101,0);fill-rule:nonzero;"/>
                    </g>
                    <g transform="matrix(5.555556,0,0,5.555556,0,0.000019)">
                        <path d="M758.766,139.453C758.766,145.023 757.215,150.625 754.008,155.621L718.52,210.801L688.094,258.102L656,308.004L625.574,355.305L528.305,506.555C482.449,546.371 470.711,521.449 471.016,474.777L572.027,322.195L603.078,275.281L635.832,225.789L666.898,178.875L703.922,122.934C713.391,108.641 732.898,105.215 746.668,115.426C754.547,121.266 758.766,130.293 758.766,139.453Z" style="fill:rgb(14,101,0);fill-rule:nonzero;"/>
                    </g>
                    <g transform="matrix(5.555556,0,0,5.555556,0,0.000019)">
                        <path d="M528.305,589.512L528.305,589.527C463.793,607.246 429.57,625.676 429.57,625.676L429.301,626.586C395.973,616.68 361.008,605.949 322.566,594.727C196.609,553.574 111.105,486.262 81,413.555L81,276.344C157.766,263.512 342.465,484.891 528.305,589.512Z" style="fill:rgb(254,254,0);fill-rule:nonzero;"/>
                    </g>
                    <g transform="matrix(5.555556,0,0,5.555556,0,0.000019)">
                        <path d="M322.566,594.727C309.219,590.828 295.449,586.879 281.188,582.863C201.336,560.418 131.238,562.695 81,570.594L81,413.555C131.59,466.68 212.539,538.348 322.566,594.727Z" style="fill:rgb(252,0,0);fill-rule:nonzero;"/>
                    </g>
                    <g transform="matrix(5.555556,0,0,5.555556,0,0.000019)">
                        <path d="M647.156,565.043L647.273,565.887C600.363,571.996 560.555,580.668 528.305,589.527L528.305,589.512C234.699,502.91 81,276.344 81,276.344L81,242.293C81,222.852 96.762,207.105 116.184,207.105C121.332,207.105 126.328,208.238 130.883,210.328C135.438,212.422 139.555,215.492 142.898,219.375C166.656,246.965 233.465,318.109 355.91,402.316C389.898,425.672 428.188,450.055 471.016,474.777C489.273,485.324 508.359,495.938 528.305,506.555C565.008,526.113 604.582,545.703 647.156,565.043Z" style="fill:rgb(14,101,0);fill-rule:nonzero;"/>
                    </g>
                    <g transform="matrix(5.555556,0,0,5.555556,0,0.000019)">
                        <path d="M268.871,19.574C298.52,19.574 322.566,43.621 322.566,73.27C322.566,102.922 298.52,126.949 268.871,126.949C239.219,126.949 215.191,102.922 215.191,73.27C215.191,43.621 239.219,19.574 268.871,19.574Z" style="fill:rgb(152,196,235);fill-rule:nonzero;"/>
                    </g>
                    <g transform="matrix(5.555556,0,0,5.555556,0,0.000019)">
                        <path d="M409.016,235.137C409.016,236.277 408.961,237.414 408.848,238.547C408.738,239.684 408.57,240.809 408.348,241.93C408.125,243.047 407.848,244.152 407.516,245.242C407.188,246.332 406.801,247.406 406.367,248.457C405.93,249.512 405.441,250.543 404.906,251.547C404.367,252.551 403.781,253.531 403.148,254.477C402.516,255.426 401.836,256.34 401.113,257.223C400.391,258.102 399.625,258.945 398.82,259.754C398.012,260.559 397.168,261.324 396.289,262.047C395.406,262.77 394.492,263.449 393.543,264.082C392.598,264.715 391.621,265.301 390.613,265.84C389.609,266.375 388.578,266.863 387.527,267.301C386.473,267.734 385.398,268.121 384.309,268.449C383.219,268.781 382.113,269.059 380.996,269.281C379.875,269.504 378.75,269.672 377.617,269.781C376.48,269.895 375.344,269.949 374.203,269.949C373.062,269.949 371.926,269.895 370.789,269.781C369.656,269.672 368.531,269.504 367.41,269.281C366.293,269.059 365.188,268.781 364.098,268.449C363.008,268.121 361.934,267.734 360.879,267.301C359.828,266.863 358.797,266.375 357.793,265.84C356.785,265.301 355.809,264.715 354.863,264.082C353.914,263.449 353,262.77 352.117,262.047C351.238,261.324 350.395,260.559 349.586,259.754C348.781,258.945 348.016,258.102 347.293,257.223C346.57,256.34 345.891,255.426 345.258,254.477C344.625,253.531 344.039,252.551 343.5,251.547C342.965,250.543 342.477,249.512 342.039,248.457C341.605,247.406 341.219,246.332 340.891,245.242C340.559,244.152 340.281,243.047 340.059,241.93C339.836,240.809 339.668,239.684 339.559,238.547C339.445,237.414 339.391,236.277 339.391,235.137C339.391,233.996 339.445,232.859 339.559,231.723C339.668,230.59 339.836,229.461 340.059,228.344C340.281,227.227 340.559,226.121 340.891,225.031C341.219,223.941 341.605,222.867 342.039,221.812C342.477,220.762 342.965,219.73 343.5,218.727C344.039,217.719 344.625,216.742 345.258,215.797C345.891,214.848 346.57,213.934 347.293,213.051C348.016,212.168 348.781,211.324 349.586,210.52C350.395,209.715 351.238,208.949 352.117,208.227C353,207.504 353.914,206.824 354.863,206.191C355.809,205.559 356.785,204.973 357.793,204.434C358.797,203.895 359.828,203.41 360.879,202.973C361.934,202.535 363.008,202.152 364.098,201.82C365.188,201.492 366.293,201.215 367.41,200.992C368.531,200.77 369.656,200.602 370.789,200.492C371.926,200.379 373.062,200.324 374.203,200.324C375.344,200.324 376.48,200.379 377.617,200.492C378.75,200.602 379.875,200.77 380.996,200.992C382.113,201.215 383.219,201.492 384.309,201.82C385.398,202.152 386.473,202.535 387.527,202.973C388.578,203.41 389.609,203.895 390.613,204.434C391.621,204.973 392.598,205.559 393.543,206.191C394.492,206.824 395.406,207.504 396.289,208.227C397.168,208.949 398.012,209.715 398.82,210.52C399.625,211.324 400.391,212.168 401.113,213.051C401.836,213.934 402.516,214.848 403.148,215.797C403.781,216.742 404.367,217.719 404.906,218.727C405.441,219.73 405.93,220.762 406.367,221.812C406.801,222.867 407.188,223.941 407.516,225.031C407.848,226.121 408.125,227.227 408.348,228.344C408.57,229.461 408.738,230.59 408.848,231.723C408.961,232.859 409.016,233.996 409.016,235.137Z" style="fill:rgb(152,196,235);fill-rule:nonzero;"/>
                    </g>
                    <g transform="matrix(5.555556,0,0,5.555556,0,0.000019)">
                        <path d="M173.98,674.055L128.148,674.055C120.695,674.055 114.648,680.102 114.648,687.555C114.648,695.012 120.695,701.055 128.148,701.055L173.98,701.055C181.438,701.055 187.48,695.012 187.48,687.555C187.48,680.102 181.438,674.055 173.98,674.055Z" style="fill:rgb(114,173,220);fill-rule:nonzero;"/>
                    </g>
                    <g transform="matrix(5.555556,0,0,5.555556,0,0.000019)">
                        <g transform="matrix(1,0,0,1,402.808581,733.874983)">
                            <g>
                                <path d="M2.188,0.109C1.895,0.109 1.648,0.008 1.453,-0.188C1.254,-0.395 1.156,-0.645 1.156,-0.938C1.156,-1.219 1.254,-1.457 1.453,-1.656C1.648,-1.863 1.895,-1.969 2.188,-1.969C2.477,-1.969 2.723,-1.863 2.922,-1.656C3.117,-1.457 3.219,-1.219 3.219,-0.938C3.219,-0.645 3.117,-0.395 2.922,-0.188C2.723,0.008 2.477,0.109 2.188,0.109Z" style="fill:rgb(114,173,220);fill-rule:nonzero;"/>
                            </g>
                        </g>
                    </g>
                </g>
            </g>
            <g transform="matrix(4.939486,0,0,6.287384,-8327.41824,-753.408971)">
                <g transform="matrix(50,0,0,50,2273.870487,182.049103)">
                    <path d="M0.561,-0L0.561,-0.716L0.758,-0.716L0.758,-0L0.561,-0ZM0.101,-0L0.101,-0.716L0.297,-0.716L0.297,-0L0.101,-0ZM0.219,-0.277L0.219,-0.453L0.654,-0.453L0.654,-0.277L0.219,-0.277Z" style="fill:rgb(14,101,0);fill-rule:nonzero;"/>
                </g>
                <g transform="matrix(50,0,0,50,2312.941256,182.049103)">
                    <path d="M0.101,-0L0.101,-0.716L0.615,-0.716L0.615,-0.548L0.297,-0.548L0.297,-0.168L0.631,-0.168L0.631,-0L0.101,-0ZM0.233,-0.298L0.233,-0.448L0.533,-0.448L0.533,-0.298L0.233,-0.298Z" style="fill:rgb(14,101,0);fill-rule:nonzero;"/>
                </g>
                <g transform="matrix(50,0,0,50,2343.620365,182.049103)">
                    <path d="M0.101,-0L0.101,-0.716L0.42,-0.716C0.5,-0.716 0.561,-0.695 0.604,-0.652C0.647,-0.609 0.668,-0.55 0.668,-0.474C0.668,-0.399 0.641,-0.341 0.586,-0.3C0.531,-0.259 0.471,-0.239 0.406,-0.239L0.181,-0.239L0.181,-0.369L0.367,-0.369C0.4,-0.369 0.425,-0.377 0.442,-0.394C0.459,-0.41 0.468,-0.433 0.468,-0.463C0.468,-0.493 0.459,-0.516 0.44,-0.53C0.421,-0.544 0.396,-0.551 0.365,-0.551L0.297,-0.551L0.297,-0L0.101,-0ZM0.512,-0L0.281,-0.302L0.496,-0.31L0.743,-0L0.512,-0Z" style="fill:rgb(14,101,0);fill-rule:nonzero;"/>
                </g>
                <g transform="matrix(50,0,0,50,2377.795307,182.049103)">
                    <path d="M0.443,0.019C0.336,0.019 0.245,-0.014 0.17,-0.078C0.094,-0.143 0.057,-0.237 0.057,-0.359C0.057,-0.473 0.094,-0.565 0.17,-0.633C0.245,-0.701 0.336,-0.735 0.443,-0.735C0.55,-0.735 0.641,-0.701 0.716,-0.632C0.791,-0.563 0.829,-0.472 0.829,-0.358C0.829,-0.246 0.792,-0.155 0.717,-0.085C0.642,-0.016 0.55,0.019 0.443,0.019ZM0.443,-0.166C0.497,-0.166 0.541,-0.182 0.576,-0.215C0.611,-0.248 0.629,-0.296 0.629,-0.358C0.629,-0.417 0.611,-0.463 0.575,-0.498C0.538,-0.533 0.495,-0.55 0.443,-0.55C0.39,-0.55 0.346,-0.534 0.311,-0.501C0.275,-0.468 0.257,-0.421 0.257,-0.359C0.257,-0.295 0.275,-0.247 0.312,-0.215C0.348,-0.182 0.392,-0.166 0.443,-0.166Z" style="fill:rgb(14,101,0);fill-rule:nonzero;"/>
                </g>
                <g transform="matrix(50,0,0,50,2418.245316,182.049103)">
                    <path d="M0.101,-0L0.101,-0.716L0.615,-0.716L0.615,-0.548L0.297,-0.548L0.297,-0.168L0.631,-0.168L0.631,-0L0.101,-0ZM0.233,-0.298L0.233,-0.448L0.533,-0.448L0.533,-0.298L0.233,-0.298Z" style="fill:rgb(14,101,0);fill-rule:nonzero;"/>
                </g>
                <g transform="matrix(50,0,0,50,2448.924425,182.049103)">
                    <path d="M0.371,0.019C0.323,0.019 0.28,0.014 0.242,0.003C0.204,-0.007 0.171,-0.023 0.141,-0.044C0.112,-0.064 0.088,-0.085 0.071,-0.106C0.054,-0.128 0.046,-0.139 0.046,-0.139L0.194,-0.241C0.194,-0.241 0.199,-0.234 0.21,-0.22C0.22,-0.206 0.234,-0.193 0.249,-0.181C0.265,-0.169 0.282,-0.16 0.301,-0.153C0.321,-0.147 0.344,-0.144 0.373,-0.144C0.408,-0.144 0.435,-0.149 0.454,-0.16C0.473,-0.171 0.482,-0.186 0.482,-0.205C0.482,-0.225 0.471,-0.242 0.449,-0.254C0.427,-0.267 0.384,-0.281 0.321,-0.295C0.226,-0.317 0.162,-0.345 0.128,-0.378C0.093,-0.411 0.076,-0.455 0.076,-0.509C0.076,-0.578 0.103,-0.632 0.157,-0.673C0.211,-0.714 0.281,-0.735 0.368,-0.735C0.408,-0.735 0.443,-0.731 0.474,-0.723C0.506,-0.714 0.535,-0.701 0.562,-0.684C0.589,-0.666 0.611,-0.646 0.628,-0.625C0.645,-0.604 0.654,-0.594 0.654,-0.594L0.516,-0.497C0.516,-0.497 0.511,-0.504 0.501,-0.516C0.49,-0.528 0.478,-0.54 0.464,-0.55C0.449,-0.56 0.435,-0.568 0.419,-0.573C0.404,-0.578 0.385,-0.58 0.363,-0.58C0.333,-0.58 0.309,-0.575 0.292,-0.565C0.275,-0.555 0.266,-0.542 0.266,-0.526C0.266,-0.51 0.276,-0.497 0.297,-0.486C0.317,-0.476 0.365,-0.461 0.441,-0.442C0.526,-0.42 0.587,-0.393 0.624,-0.36C0.66,-0.327 0.678,-0.281 0.678,-0.223C0.678,-0.155 0.652,-0.097 0.6,-0.051C0.548,-0.005 0.472,0.019 0.371,0.019Z" style="fill:rgb(14,101,0);fill-rule:nonzero;"/>
                </g>
                <g transform="matrix(50,0,0,50,2273.870487,226.474152)">
                    <path d="M0.443,0.019C0.336,0.019 0.245,-0.014 0.17,-0.078C0.094,-0.143 0.057,-0.237 0.057,-0.359C0.057,-0.473 0.094,-0.565 0.17,-0.633C0.245,-0.701 0.336,-0.735 0.443,-0.735C0.55,-0.735 0.641,-0.701 0.716,-0.632C0.791,-0.563 0.829,-0.472 0.829,-0.358C0.829,-0.246 0.792,-0.155 0.717,-0.085C0.642,-0.016 0.55,0.019 0.443,0.019ZM0.443,-0.166C0.497,-0.166 0.541,-0.182 0.576,-0.215C0.611,-0.248 0.629,-0.296 0.629,-0.358C0.629,-0.417 0.611,-0.463 0.575,-0.498C0.538,-0.533 0.495,-0.55 0.443,-0.55C0.39,-0.55 0.346,-0.534 0.311,-0.501C0.275,-0.468 0.257,-0.421 0.257,-0.359C0.257,-0.295 0.275,-0.247 0.312,-0.215C0.348,-0.182 0.392,-0.166 0.443,-0.166Z" style="fill:rgb(135,115,0);fill-rule:nonzero;"/>
                </g>
                <g transform="matrix(50,0,0,50,2314.320496,226.474152)">
                    <path d="M0.101,-0L0.101,-0.716L0.588,-0.716L0.588,-0.54L0.297,-0.54L0.297,-0L0.101,-0ZM0.219,-0.265L0.219,-0.423L0.542,-0.423L0.542,-0.265L0.219,-0.265Z" style="fill:rgb(135,115,0);fill-rule:nonzero;"/>
                </g>
                <g transform="matrix(50,0,0,50,2342.445438,226.474152)">
                </g>
                <g transform="matrix(50,0,0,50,2353.041265,226.474152)">
                    <path d="M0.259,-0L0.259,-0.625L0.456,-0.625L0.456,-0L0.259,-0ZM0.041,-0.54L0.041,-0.716L0.674,-0.716L0.674,-0.54L0.041,-0.54Z" style="fill:rgb(135,115,0);fill-rule:nonzero;"/>
                </g>
                <g transform="matrix(50,0,0,50,2384.937022,226.474152)">
                    <path d="M0.561,-0L0.561,-0.716L0.758,-0.716L0.758,-0L0.561,-0ZM0.101,-0L0.101,-0.716L0.297,-0.716L0.297,-0L0.101,-0ZM0.219,-0.277L0.219,-0.453L0.654,-0.453L0.654,-0.277L0.219,-0.277Z" style="fill:rgb(135,115,0);fill-rule:nonzero;"/>
                </g>
                <g transform="matrix(50,0,0,50,2424.00779,226.474152)">
                    <path d="M0.101,-0L0.101,-0.716L0.615,-0.716L0.615,-0.548L0.297,-0.548L0.297,-0.168L0.631,-0.168L0.631,-0L0.101,-0ZM0.233,-0.298L0.233,-0.448L0.533,-0.448L0.533,-0.298L0.233,-0.298Z" style="fill:rgb(135,115,0);fill-rule:nonzero;"/>
                </g>
                <g transform="matrix(50,0,0,50,2273.870487,270.8992)">
                    <path d="M0.371,0.019C0.323,0.019 0.28,0.014 0.242,0.003C0.204,-0.007 0.171,-0.023 0.141,-0.044C0.112,-0.064 0.088,-0.085 0.071,-0.106C0.054,-0.128 0.046,-0.139 0.046,-0.139L0.194,-0.241C0.194,-0.241 0.199,-0.234 0.21,-0.22C0.22,-0.206 0.234,-0.193 0.249,-0.181C0.265,-0.169 0.282,-0.16 0.301,-0.153C0.321,-0.147 0.344,-0.144 0.373,-0.144C0.408,-0.144 0.435,-0.149 0.454,-0.16C0.473,-0.171 0.482,-0.186 0.482,-0.205C0.482,-0.225 0.471,-0.242 0.449,-0.254C0.427,-0.267 0.384,-0.281 0.321,-0.295C0.226,-0.317 0.162,-0.345 0.128,-0.378C0.093,-0.411 0.076,-0.455 0.076,-0.509C0.076,-0.578 0.103,-0.632 0.157,-0.673C0.211,-0.714 0.281,-0.735 0.368,-0.735C0.408,-0.735 0.443,-0.731 0.474,-0.723C0.506,-0.714 0.535,-0.701 0.562,-0.684C0.589,-0.666 0.611,-0.646 0.628,-0.625C0.645,-0.604 0.654,-0.594 0.654,-0.594L0.516,-0.497C0.516,-0.497 0.511,-0.504 0.501,-0.516C0.49,-0.528 0.478,-0.54 0.464,-0.55C0.449,-0.56 0.435,-0.568 0.419,-0.573C0.404,-0.578 0.385,-0.58 0.363,-0.58C0.333,-0.58 0.309,-0.575 0.292,-0.565C0.275,-0.555 0.266,-0.542 0.266,-0.526C0.266,-0.51 0.276,-0.497 0.297,-0.486C0.317,-0.476 0.365,-0.461 0.441,-0.442C0.526,-0.42 0.587,-0.393 0.624,-0.36C0.66,-0.327 0.678,-0.281 0.678,-0.223C0.678,-0.155 0.652,-0.097 0.6,-0.051C0.548,-0.005 0.472,0.019 0.371,0.019Z" style="fill:rgb(252,0,0);fill-rule:nonzero;"/>
                </g>
                <g transform="matrix(50,0,0,50,2306.478733,270.8992)">
                    <path d="M0.101,-0L0.101,-0.716L0.615,-0.716L0.615,-0.548L0.297,-0.548L0.297,-0.168L0.631,-0.168L0.631,-0L0.101,-0ZM0.233,-0.298L0.233,-0.448L0.533,-0.448L0.533,-0.298L0.233,-0.298Z" style="fill:rgb(252,0,0);fill-rule:nonzero;"/>
                </g>
                <g transform="matrix(50,0,0,50,2337.157842,270.8992)">
                    <path d="M0.027,-0L0.324,-0.716L0.496,-0.716L0.792,-0L0.586,-0L0.443,-0.373L0.408,-0.469L0.403,-0.469L0.372,-0.374L0.232,-0L0.027,-0ZM0.171,-0.106L0.226,-0.257L0.592,-0.257L0.648,-0.106L0.171,-0.106Z" style="fill:rgb(252,0,0);fill-rule:nonzero;"/>
                </g>
                <g transform="matrix(50,0,0,50,2378.107763,270.8992)">
                </g>
            </g>
        </g>
    </g>
</svg>
